<?xml version="1.0" encoding="UTF-8" standalone="no"?>
<!DOCTYPE svg PUBLIC "-//W3C//DTD SVG 1.1//EN" "http://www.w3.org/Graphics/SVG/1.1/DTD/svg11.dtd">
<!-- Generated by Microsoft Visio, SVG Export intro.svg Page-1 -->
<svg xmlns="http://www.w3.org/2000/svg" xmlns:xlink="http://www.w3.org/1999/xlink" xmlns:ev="http://www.w3.org/2001/xml-events"
		xmlns:v="http://schemas.microsoft.com/visio/2003/SVGExtensions/" width="11.2353in" height="6.23806in"
		viewBox="0 0 808.941 449.14" xml:space="preserve" color-interpolation-filters="sRGB" class="st20">
	<v:documentProperties v:langID="1033" v:metric="true" v:viewMarkup="false">
		<v:userDefs>
			<v:ud v:nameU="msvSubprocessMaster" v:prompt="" v:val="VT4(Rectangle)"/>
			<v:ud v:nameU="msvNoAutoConnect" v:val="VT0(1):26"/>
		</v:userDefs>
	</v:documentProperties>

	<style type="text/css">
	<![CDATA[
		.st1 {fill:#cae3db;fill-opacity:0.2;stroke:none;stroke-width:0.25}
		.st2 {visibility:visible}
		.st3 {fill:#000000;fill-opacity:0.2;filter:url(#filter_2.6666667461395);stroke:#000000;stroke-opacity:0.2}
		.st4 {fill:#f2f2f2;stroke:#c7c8c8;stroke-width:0.25}
		.st5 {fill:#000000;font-family:Calibri;font-size:1.00001em;font-weight:bold}
		.st6 {fill:#aeb8fe;fill-opacity:0.65;stroke:#c7c8c8;stroke-width:0.25}
		.st7 {fill:#cae3db;stroke:#c7c8c8;stroke-width:0.25}
		.st8 {marker-end:url(#mrkr4-44);stroke:#aeb8fe;stroke-linecap:round;stroke-linejoin:round;stroke-width:1}
		.st9 {fill:#aeb8fe;fill-opacity:1;stroke:#aeb8fe;stroke-opacity:1;stroke-width:0.28409090909091}
		.st10 {marker-end:url(#mrkr5-63);marker-start:url(#mrkr5-61);stroke:#b8c609;stroke-linecap:round;stroke-linejoin:round;stroke-width:1}
		.st11 {fill:#b8c609;fill-opacity:1;stroke:#b8c609;stroke-opacity:1;stroke-width:0.28409090909091}
		.st12 {fill:none;stroke:none;stroke-width:0.25}
		.st13 {fill:#a5a5a5;font-family:Consolas;font-size:0.833336em;font-weight:bold}
		.st14 {fill:#ffffff;font-family:Consolas;font-size:0.833336em;font-weight:bold}
		.st15 {fill:#c95a79;stroke:none;stroke-width:0.25}
		.st16 {marker-end:url(#mrkr5-104);stroke:#d091a6;stroke-dasharray:7,5;stroke-linecap:round;stroke-linejoin:round;stroke-width:1}
		.st17 {fill:#d091a6;fill-opacity:1;stroke:#d091a6;stroke-opacity:1;stroke-width:0.28409090909091}
		.st18 {fill:#d091a6;font-family:Calibri;font-size:1.00001em;font-weight:bold}
		.st19 {font-size:1em}
		.st20 {fill:none;fill-rule:evenodd;font-size:12px;overflow:visible;stroke-linecap:square;stroke-miterlimit:3}
	]]>
	</style>

	<defs id="Markers">
		<g id="lend4">
			<path d="M 2 1 L 0 0 L 2 -1 L 2 1 " style="stroke:none"/>
		</g>
		<marker id="mrkr4-44" class="st9" v:arrowType="4" v:arrowSize="2" v:setback="7.04" refX="-7.04" orient="auto"
				markerUnits="strokeWidth" overflow="visible">
			<use xlink:href="#lend4" transform="scale(-3.52,-3.52) "/>
		</marker>
		<g id="lend5">
			<path d="M 2 1 L 0 0 L 1.98117 -0.993387 C 1.67173 -0.364515 1.67301 0.372641 1.98465 1.00043 " style="stroke:none"/>
		</g>
		<marker id="mrkr5-61" class="st11" v:arrowType="5" v:arrowSize="2" v:setback="5.8" refX="5.8" orient="auto"
				markerUnits="strokeWidth" overflow="visible">
			<use xlink:href="#lend5" transform="scale(3.52) "/>
		</marker>
		<marker id="mrkr5-63" class="st11" v:arrowType="5" v:arrowSize="2" v:setback="6.16" refX="-6.16" orient="auto"
				markerUnits="strokeWidth" overflow="visible">
			<use xlink:href="#lend5" transform="scale(-3.52,-3.52) "/>
		</marker>
		<marker id="mrkr5-104" class="st17" v:arrowType="5" v:arrowSize="2" v:setback="5.8" refX="-5.8" orient="auto"
				markerUnits="strokeWidth" overflow="visible">
			<use xlink:href="#lend5" transform="scale(-3.52,-3.52) "/>
		</marker>
	</defs>
	<defs id="Filters">
		<filter id="filter_2.6666667461395">
			<feGaussianBlur stdDeviation="2.6666667461395"/>
		</filter>
	</defs>
	<g v:mID="0" v:index="1" v:groupContext="foregroundPage">
		<v:userDefs>
			<v:ud v:nameU="msvThemeOrder" v:val="VT0(0):26"/>
		</v:userDefs>
		<title>Page-1</title>
		<v:pageProperties v:drawingScale="0.0393701" v:pageScale="0.0393701" v:drawingUnits="24" v:shadowOffsetX="8.50394"
				v:shadowOffsetY="-8.50394"/>
		<v:layer v:name="Connector" v:index="0"/>
		<g id="shape12-1" v:mID="12" v:groupContext="shape" transform="translate(542.659,-46.6866)">
			<title>Rectangle.12</title>
			<v:userDefs>
				<v:ud v:nameU="visVersion" v:val="VT0(15):26"/>
			</v:userDefs>
			<rect x="0" y="108.983" width="170.079" height="340.157" class="st1"/>
		</g>
		<g id="shape1-3" v:mID="1" v:groupContext="shape" transform="translate(74.9429,-174.246)">
			<title>Rectangle</title>
			<desc>World of Warcraft</desc>
			<v:userDefs>
				<v:ud v:nameU="visVersion" v:val="VT0(15):26"/>
			</v:userDefs>
			<v:textBlock v:margins="rect(4,4,4,4)" v:tabSpace="42.5197"/>
			<v:textRect cx="56.6929" cy="406.62" width="113.39" height="85.0394"/>
			<g id="shadow1-4" v:groupContext="shadow" v:shadowOffsetX="2.12132" v:shadowOffsetY="-2.12132" v:shadowType="1"
					transform="matrix(1,0,0,1,2.12132,2.12132)" class="st2">
				<rect x="0" y="364.101" width="113.386" height="85.0394" class="st3"/>
			</g>
			<rect x="0" y="364.101" width="113.386" height="85.0394" class="st4"/>
			<text x="11.25" y="410.22" class="st5" v:langID="1033"><v:paragraph v:horizAlign="1"/><v:tabList/>World of Warcraft</text>		</g>
		<g id="shape2-9" v:mID="2" v:groupContext="shape" transform="translate(230.848,-174.246)">
			<title>Rectangle.2</title>
			<desc>Class/Specification</desc>
			<v:userDefs>
				<v:ud v:nameU="visVersion" v:val="VT0(15):26"/>
			</v:userDefs>
			<v:textBlock v:margins="rect(4,4,4,4)" v:tabSpace="42.5197"/>
			<v:textRect cx="56.6929" cy="406.62" width="113.39" height="85.0394"/>
			<g id="shadow2-10" v:groupContext="shadow" v:shadowOffsetX="2.12132" v:shadowOffsetY="-2.12132" v:shadowType="1"
					transform="matrix(1,0,0,1,2.12132,2.12132)" class="st2">
				<rect x="0" y="364.101" width="113.386" height="85.0394" class="st3"/>
			</g>
			<rect x="0" y="364.101" width="113.386" height="85.0394" class="st6"/>
			<text x="9.81" y="410.22" class="st5" v:langID="1033"><v:paragraph v:horizAlign="1"/><v:tabList/>Class/Specification</text>		</g>
		<g id="shape3-15" v:mID="3" v:groupContext="shape" transform="translate(386.754,-174.246)">
			<title>Rectangle.3</title>
			<desc>Gameplay Style</desc>
			<v:userDefs>
				<v:ud v:nameU="visVersion" v:val="VT0(15):26"/>
			</v:userDefs>
			<v:textBlock v:margins="rect(4,4,4,4)" v:tabSpace="42.5197"/>
			<v:textRect cx="56.6929" cy="406.62" width="113.39" height="85.0394"/>
			<g id="shadow3-16" v:groupContext="shadow" v:shadowOffsetX="2.12132" v:shadowOffsetY="-2.12132" v:shadowType="1"
					transform="matrix(1,0,0,1,2.12132,2.12132)" class="st2">
				<rect x="0" y="364.101" width="113.386" height="85.0394" class="st3"/>
			</g>
			<rect x="0" y="364.101" width="113.386" height="85.0394" class="st6"/>
			<text x="17.9" y="410.22" class="st5" v:langID="1033"><v:paragraph v:horizAlign="1"/><v:tabList/>Gameplay Style</text>		</g>
		<g id="shape4-21" v:mID="4" v:groupContext="shape" transform="translate(571.006,-174.246)">
			<title>Rectangle.4</title>
			<desc>Spell Rotations</desc>
			<v:userDefs>
				<v:ud v:nameU="visVersion" v:val="VT0(15):26"/>
			</v:userDefs>
			<v:textBlock v:margins="rect(4,4,4,4)" v:tabSpace="42.5197"/>
			<v:textRect cx="56.6929" cy="406.62" width="113.39" height="85.0394"/>
			<g id="shadow4-22" v:groupContext="shadow" v:shadowOffsetX="2.12132" v:shadowOffsetY="-2.12132" v:shadowType="1"
					transform="matrix(1,0,0,1,2.12132,2.12132)" class="st2">
				<rect x="0" y="364.101" width="113.386" height="85.0394" class="st3"/>
			</g>
			<rect x="0" y="364.101" width="113.386" height="85.0394" class="st7"/>
			<text x="19.27" y="410.22" class="st5" v:langID="1033"><v:paragraph v:horizAlign="1"/><v:tabList/>Spell Rotations</text>		</g>
		<g id="shape5-27" v:mID="5" v:groupContext="shape" transform="translate(571.006,-280.545)">
			<title>Rectangle.5</title>
			<desc>Talents</desc>
			<v:userDefs>
				<v:ud v:nameU="visVersion" v:val="VT0(15):26"/>
			</v:userDefs>
			<v:textBlock v:margins="rect(4,4,4,4)" v:tabSpace="42.5197"/>
			<v:textRect cx="56.6929" cy="406.62" width="113.39" height="85.0394"/>
			<g id="shadow5-28" v:groupContext="shadow" v:shadowOffsetX="2.12132" v:shadowOffsetY="-2.12132" v:shadowType="1"
					transform="matrix(1,0,0,1,2.12132,2.12132)" class="st2">
				<rect x="0" y="364.101" width="113.386" height="85.0394" class="st3"/>
			</g>
			<rect x="0" y="364.101" width="113.386" height="85.0394" class="st7"/>
			<text x="38.57" y="410.22" class="st5" v:langID="1033"><v:paragraph v:horizAlign="1"/><v:tabList/>Talents</text>		</g>
		<g id="shape6-33" v:mID="6" v:groupContext="shape" transform="translate(571.006,-67.9465)">
			<title>Rectangle.6</title>
			<desc>Gear Build</desc>
			<v:userDefs>
				<v:ud v:nameU="visVersion" v:val="VT0(15):26"/>
			</v:userDefs>
			<v:textBlock v:margins="rect(4,4,4,4)" v:tabSpace="42.5197"/>
			<v:textRect cx="56.6929" cy="406.62" width="113.39" height="85.0394"/>
			<g id="shadow6-34" v:groupContext="shadow" v:shadowOffsetX="2.12132" v:shadowOffsetY="-2.12132" v:shadowType="1"
					transform="matrix(1,0,0,1,2.12132,2.12132)" class="st2">
				<rect x="0" y="364.101" width="113.386" height="85.0394" class="st3"/>
			</g>
			<rect x="0" y="364.101" width="113.386" height="85.0394" class="st7"/>
			<text x="30.65" y="410.22" class="st5" v:langID="1033"><v:paragraph v:horizAlign="1"/><v:tabList/>Gear Build</text>		</g>
		<g id="shape7-39" v:mID="7" v:groupContext="shape" v:layerMember="0" transform="translate(188.329,-209.679)">
			<title>Dynamic connector</title>
			<path d="M0 442.05 L35.48 442.05" class="st8"/>
		</g>
		<g id="shape8-45" v:mID="8" v:groupContext="shape" v:layerMember="0" transform="translate(344.234,-209.679)">
			<title>Dynamic connector.8</title>
			<path d="M0 442.05 L35.48 442.05" class="st8"/>
		</g>
		<g id="shape9-50" v:mID="9" v:groupContext="shape" v:layerMember="0" transform="translate(500.14,-223.852)">
			<title>Dynamic connector.9</title>
			<path d="M0 456.23 L35.48 456.23" class="st8"/>
		</g>
		<g id="shape13-55" v:mID="13" v:groupContext="shape" v:layerMember="0" transform="translate(634.785,-280.545)">
			<title>Dynamic connector.13</title>
			<path d="M-7.09 454.94 L-7.09 455.3 L-7.09 464.24" class="st10"/>
		</g>
		<g id="shape14-64" v:mID="14" v:groupContext="shape" v:layerMember="0" transform="translate(620.612,-174.246)">
			<title>Dynamic connector.14</title>
			<path d="M7.09 454.94 L7.09 455.3 L7.09 464.24" class="st10"/>
		</g>
		<g id="shape20-71" v:mID="20" v:groupContext="shape" transform="translate(74.9429,-238.025)">
			<title>Square</title>
			<desc>0</desc>
			<v:userDefs>
				<v:ud v:nameU="visVersion" v:val="VT0(15):26"/>
			</v:userDefs>
			<v:textBlock v:margins="rect(4,4,4,4)" v:tabSpace="42.5197"/>
			<v:textRect cx="10.6299" cy="438.51" width="21.26" height="21.2598"/>
			<rect x="0" y="427.88" width="21.2598" height="21.2598" class="st12"/>
			<text x="7.88" y="441.51" class="st13" v:langID="1033"><v:paragraph v:horizAlign="1"/><v:tabList/>0</text>		</g>
		<g id="shape21-74" v:mID="21" v:groupContext="shape" transform="translate(230.848,-238.025)">
			<title>Square.21</title>
			<desc>1</desc>
			<v:userDefs>
				<v:ud v:nameU="visVersion" v:val="VT0(15):26"/>
			</v:userDefs>
			<v:textBlock v:margins="rect(4,4,4,4)" v:tabSpace="42.5197"/>
			<v:textRect cx="10.6299" cy="438.51" width="21.26" height="21.2598"/>
			<rect x="0" y="427.88" width="21.2598" height="21.2598" class="st12"/>
			<text x="7.88" y="441.51" class="st14" v:langID="1033"><v:paragraph v:horizAlign="1"/><v:tabList/>1</text>		</g>
		<g id="shape22-77" v:mID="22" v:groupContext="shape" transform="translate(386.754,-238.025)">
			<title>Square.22</title>
			<desc>2</desc>
			<v:userDefs>
				<v:ud v:nameU="visVersion" v:val="VT0(15):26"/>
			</v:userDefs>
			<v:textBlock v:margins="rect(4,4,4,4)" v:tabSpace="42.5197"/>
			<v:textRect cx="10.6299" cy="438.51" width="21.26" height="21.2598"/>
			<rect x="0" y="427.88" width="21.2598" height="21.2598" class="st12"/>
			<text x="7.88" y="441.51" class="st14" v:langID="1033"><v:paragraph v:horizAlign="1"/><v:tabList/>2</text>		</g>
		<g id="shape23-80" v:mID="23" v:groupContext="shape" transform="translate(571.006,-344.324)">
			<title>Square.23</title>
			<desc>3</desc>
			<v:userDefs>
				<v:ud v:nameU="visVersion" v:val="VT0(15):26"/>
			</v:userDefs>
			<v:textBlock v:margins="rect(4,4,4,4)" v:tabSpace="42.5197"/>
			<v:textRect cx="10.6299" cy="438.51" width="21.26" height="21.2598"/>
			<rect x="0" y="427.88" width="21.2598" height="21.2598" class="st12"/>
			<text x="7.88" y="441.51" class="st14" v:langID="1033"><v:paragraph v:horizAlign="1"/><v:tabList/>3</text>		</g>
		<g id="shape24-83" v:mID="24" v:groupContext="shape" transform="translate(571.006,-238.025)">
			<title>Square.24</title>
			<desc>4</desc>
			<v:userDefs>
				<v:ud v:nameU="visVersion" v:val="VT0(15):26"/>
			</v:userDefs>
			<v:textBlock v:margins="rect(4,4,4,4)" v:tabSpace="42.5197"/>
			<v:textRect cx="10.6299" cy="438.51" width="21.26" height="21.2598"/>
			<rect x="0" y="427.88" width="21.2598" height="21.2598" class="st12"/>
			<text x="7.88" y="441.51" class="st14" v:langID="1033"><v:paragraph v:horizAlign="1"/><v:tabList/>4</text>		</g>
		<g id="shape25-86" v:mID="25" v:groupContext="shape" transform="translate(571.006,-131.726)">
			<title>Square.25</title>
			<desc>5</desc>
			<v:userDefs>
				<v:ud v:nameU="visVersion" v:val="VT0(15):26"/>
			</v:userDefs>
			<v:textBlock v:margins="rect(4,4,4,4)" v:tabSpace="42.5197"/>
			<v:textRect cx="10.6299" cy="438.51" width="21.26" height="21.2598"/>
			<rect x="0" y="427.88" width="21.2598" height="21.2598" class="st12"/>
			<text x="7.88" y="441.51" class="st14" v:langID="1033"><v:paragraph v:horizAlign="1"/><v:tabList/>5</text>		</g>
		<g id="shape37-89" v:mID="37" v:groupContext="shape" transform="translate(282.226,-268.143)">
			<title>Circle</title>
			<v:userDefs>
				<v:ud v:nameU="visVersion" v:val="VT0(15):26"/>
			</v:userDefs>
			<path d="M0 443.83 A5.31496 5.31496 0 0 1 10.63 443.83 A5.31496 5.31496 0 1 1 0 443.83 Z" class="st15"/>
		</g>
		<g id="shape38-91" v:mID="38" v:groupContext="shape" transform="translate(438.132,-268.143)">
			<title>Circle.38</title>
			<v:userDefs>
				<v:ud v:nameU="visVersion" v:val="VT0(15):26"/>
			</v:userDefs>
			<path d="M0 443.83 A5.31496 5.31496 0 0 1 10.63 443.83 A5.31496 5.31496 0 1 1 0 443.83 Z" class="st15"/>
		</g>
		<g id="shape60-93" v:mID="60" v:groupContext="shape" transform="translate(693.25,-315.978)">
			<title>Circle.60</title>
			<v:userDefs>
				<v:ud v:nameU="visVersion" v:val="VT0(15):26"/>
			</v:userDefs>
			<path d="M0 443.83 A5.31496 5.31496 0 0 1 10.63 443.83 A5.31496 5.31496 0 1 1 0 443.83 Z" class="st15"/>
		</g>
		<g id="shape61-95" v:mID="61" v:groupContext="shape" transform="translate(693.25,-211.45)">
			<title>Circle.61</title>
			<v:userDefs>
				<v:ud v:nameU="visVersion" v:val="VT0(15):26"/>
			</v:userDefs>
			<path d="M0 443.83 A5.31496 5.31496 0 0 1 10.63 443.83 A5.31496 5.31496 0 1 1 0 443.83 Z" class="st15"/>
		</g>
		<g id="shape62-97" v:mID="62" v:groupContext="shape" transform="translate(627.699,-75.0331)">
			<title>Circle.62</title>
			<v:userDefs>
				<v:ud v:nameU="visVersion" v:val="VT0(15):26"/>
			</v:userDefs>
			<path d="M0 443.83 A5.31496 5.31496 0 0 1 10.63 443.83 A5.31496 5.31496 0 1 1 0 443.83 Z" class="st15"/>
		</g>
		<g id="shape63-99" v:mID="63" v:groupContext="shape" transform="translate(292.856,-271.36)">
			<title>Sheet.63</title>
			<path d="M0 447.04 C31.34 447.87 70.98 439.47 103.38 444.21 C116.89 446.18 129.15 450.43 139.37 448.8 L139.72 448.7"
					class="st16"/>
		</g>
		<g id="shape65-105" v:mID="65" v:groupContext="shape" transform="translate(364.434,-269.524) rotate(-10.6197)">
			<title>Sheet.65</title>
			<path d="M0 449.14 C8.41 449.78 8.94 446.79 9.66 443.94 C15.19 422.12 31.66 409.24 45.77 394.7 C60.78 379.24 73.12 361.91
						 93.42 351.85 C108.44 344.4 127.82 340.93 148.72 341.2 C165.14 341.42 182.5 343.95 199.74 347.5 C222.49 352.19
						 245.02 358.65 262.09 366.23 C273.98 371.51 283.21 377.33 287.15 386.8 C294.35 404.13 283.76 433.69 264.95
						 446.16 L264.64 446.33" class="st16"/>
		</g>
		<g id="shape66-110" v:mID="66" v:groupContext="shape" transform="translate(1145.33,133.162) rotate(90)">
			<title>Sheet.66</title>
			<path d="M0 446.76 C25.25 447.03 60.87 451.38 87.82 447.75 L88.17 447.69" class="st16"/>
		</g>
		<g id="shape67-115" v:mID="67" v:groupContext="shape" transform="translate(1102.65,433.766) rotate(115.885)">
			<title>Sheet.67</title>
			<path d="M0 449.14 C22.48 427.67 50.15 409.64 76.73 414 C97.01 417.34 116.65 433.7 136.27 445.96 L136.58 446.14"
					class="st16"/>
		</g>
		<g id="shape68-120" v:mID="68" v:groupContext="shape" transform="translate(18.25,-259.285)">
			<title>Sheet.68</title>
			<desc>Our project builds along this path</desc>
			<v:textBlock v:margins="rect(4,4,4,4)" v:tabSpace="42.5197"/>
			<v:textRect cx="117.638" cy="434.258" width="235.28" height="29.7638"/>
			<rect x="0" y="419.376" width="235.276" height="29.7638" class="st12"/>
			<text x="34.35" y="437.86" class="st18" v:langID="1033"><v:paragraph v:horizAlign="1"/><v:tabList/>Our project builds along this path</text>		</g>
		<g id="shape69-123" v:mID="69" v:groupContext="shape" transform="translate(575.494,-18.3402)">
			<title>Sheet.69</title>
			<desc>Our optimization problem is setup here</desc>
			<v:textBlock v:margins="rect(4,4,4,4)" v:tabSpace="42.5197"/>
			<v:textRect cx="52.2047" cy="427.88" width="104.41" height="42.5197"/>
			<rect x="0" y="406.62" width="104.409" height="42.5197" class="st12"/>
			<text x="9.74" y="417.08" class="st18" v:langID="1033"><v:paragraph v:horizAlign="1"/><v:tabList/>Our optimization <tspan
						x="10.52" dy="1.2em" class="st19">problem is setup </tspan><tspan x="40.81" dy="1.2em" class="st19">here</tspan></text>		</g>
		<g id="shape70-128" v:mID="70" v:groupContext="shape" transform="translate(245.022,-286.214)">
			<title>Sheet.70</title>
			<desc>Blood Death Knight</desc>
			<v:textBlock v:margins="rect(4,4,4,4)" v:tabSpace="42.5197"/>
			<v:textRect cx="42.5197" cy="434.258" width="85.04" height="29.7638"/>
			<rect x="0" y="419.376" width="85.0394" height="29.7638" class="st12"/>
			<text x="11.59" y="430.66" class="st18" v:langID="1033"><v:paragraph v:horizAlign="1"/><v:tabList/>Blood Death <tspan
						x="26.4" dy="1.2em" class="st19">Knight</tspan></text>		</g>
		<g id="shape71-132" v:mID="71" v:groupContext="shape" transform="translate(225.179,-272.59)">
			<title>Sheet.71</title>
			<path d="M0 448.27 C16.54 443.77 32.27 450.25 50.93 448.97 L51.29 448.93" class="st16"/>
		</g>
		<g id="shape72-137" v:mID="72" v:groupContext="shape" transform="translate(386.754,-286.214)">
			<title>Sheet.72</title>
			<desc>PVE: Dungeons</desc>
			<v:textBlock v:margins="rect(4,4,4,4)" v:tabSpace="42.5197"/>
			<v:textRect cx="35.4331" cy="434.258" width="70.87" height="29.7638"/>
			<rect x="0" y="419.376" width="70.8661" height="29.7638" class="st12"/>
			<text x="24.11" y="430.66" class="st18" v:langID="1033"><v:paragraph v:horizAlign="1"/><v:tabList/>PVE: <tspan
						x="10.51" dy="1.2em" class="st19">Dungeons</tspan></text>		</g>
		<g id="shape73-141" v:mID="73" v:groupContext="shape" transform="translate(719.825,-287.632)">
			<title>Sheet.73</title>
			<desc>Predefined default talents</desc>
			<v:textBlock v:margins="rect(4,4,4,4)" v:tabSpace="42.5197"/>
			<v:textRect cx="35.4331" cy="421.452" width="70.87" height="55.3768"/>
			<rect x="0" y="393.763" width="70.8661" height="55.3768" class="st12"/>
			<text x="8.01" y="410.65" class="st18" v:langID="1033"><v:paragraph v:horizAlign="1"/><v:tabList/>Predefined <tspan
						x="17.56" dy="1.2em" class="st19">default </tspan><tspan x="18.2" dy="1.2em" class="st19">talents</tspan></text>		</g>
		<g id="shape74-146" v:mID="74" v:groupContext="shape" transform="translate(712.738,-182.674)">
			<title>Sheet.74</title>
			<desc>Predefined ideal rotations</desc>
			<v:textBlock v:margins="rect(4,4,4,4)" v:tabSpace="42.5197"/>
			<v:textRect cx="35.4331" cy="415.048" width="70.87" height="68.1834"/>
			<rect x="0" y="380.957" width="70.8661" height="68.1834" class="st12"/>
			<text x="8.01" y="404.25" class="st18" v:langID="1033"><v:paragraph v:horizAlign="1"/><v:tabList/>Predefined <tspan
						x="23.28" dy="1.2em" class="st19">ideal </tspan><tspan x="12.64" dy="1.2em" class="st19">rotations</tspan></text>		</g>
	</g>
</svg>
